<svg width="25" height="25" viewBox="0 0 25 25" fill="none" xmlns="http://www.w3.org/2000/svg">
<path d="M19.8656 13.6896L13.9729 19.5833C13.5822 19.9739 13.0524 20.1933 12.5 20.1933C11.9476 20.1933 11.4178 19.9739 11.0271 19.5833L5.13436 13.6906C4.64725 13.2078 4.2603 12.6334 3.99575 12.0006C3.73119 11.3678 3.59423 10.689 3.59272 10.0031C3.59122 9.31721 3.72521 8.63778 3.98699 8.00382C4.24878 7.36985 4.6332 6.79384 5.1182 6.30884C5.60319 5.82385 6.17921 5.43942 6.81317 5.17764C7.44714 4.91585 8.12657 4.78187 8.81245 4.78337C9.49834 4.78487 10.1772 4.92183 10.81 5.18639C11.4428 5.45095 12.0171 5.83789 12.5 6.32501C13.4808 5.36862 14.7989 4.83716 16.1688 4.84574C17.5386 4.85432 18.85 5.40226 19.8187 6.37086C20.7875 7.33946 21.3356 8.65073 21.3444 10.0206C21.3531 11.3905 20.8219 12.7087 19.8656 13.6896Z" stroke="black" stroke-linecap="round" stroke-linejoin="round"/>
</svg>
