<svg width="20" height="20" viewBox="0 0 20 20" fill="none" xmlns="http://www.w3.org/2000/svg">
<path d="M4 0H16C17.0609 0 18.0783 0.421427 18.8284 1.17157C19.5786 1.92172 20 2.93913 20 4V10H18V4C18 3.46957 17.7893 2.96086 17.4142 2.58579C17.0391 2.21071 16.5304 2 16 2H4C3.46957 2 2.96086 2.21071 2.58579 2.58579C2.21071 2.96086 2 3.46957 2 4V16C2 16.5304 2.21071 17.0391 2.58579 17.4142C2.96086 17.7893 3.46957 18 4 18H10V20H4C2.93913 20 1.92172 19.5786 1.17157 18.8284C0.421427 18.0783 0 17.0609 0 16V4C0 2.93913 0.421427 1.92172 1.17157 1.17157C1.92172 0.421427 2.93913 0 4 0ZM10 6C11.0609 6 12.0783 6.42143 12.8284 7.17157C13.5786 7.92172 14 8.93913 14 10C14 11.0609 13.5786 12.0783 12.8284 12.8284C12.0783 13.5786 11.0609 14 10 14C8.93913 14 7.92172 13.5786 7.17157 12.8284C6.42143 12.0783 6 11.0609 6 10C6 8.93913 6.42143 7.92172 7.17157 7.17157C7.92172 6.42143 8.93913 6 10 6ZM16 14C16.5304 14 17.0391 14.2107 17.4142 14.5858C17.7893 14.9609 18 15.4696 18 16C18 16.5304 17.7893 17.0391 17.4142 17.4142C17.0391 17.7893 16.5304 18 16 18C15.4696 18 14.9609 17.7893 14.5858 17.4142C14.2107 17.0391 14 16.5304 14 16C14 15.4696 14.2107 14.9609 14.5858 14.5858C14.9609 14.2107 15.4696 14 16 14Z" fill="#5F5F5F"/>
</svg>
